<svg width="121" height="24" viewBox="0 0 121 24" fill="none" xmlns="http://www.w3.org/2000/svg">
<path d="M6.38 10.96H13.66C16.92 10.96 18.68 12.18 18.68 14.62C18.68 17.36 17.02 19 12.94 19H0.48L3.14 15.56H13.26C14.24 15.56 14.68 15.28 14.68 14.58C14.68 13.9 14.24 13.62 13.26 13.62H5.98C2.54 13.62 0.96 12.08 0.96 9.78C0.96 7.26 2.64 5.62 6.7 5.62H18.32L15.66 9.1H6.38C5.42 9.1 4.96 9.34 4.96 10.02C4.96 10.7 5.42 10.96 6.38 10.96ZM36.0778 17.8L33.9378 14.02C32.7778 11.96 32.2378 10.96 31.7778 10C31.3578 10.96 30.8178 11.94 29.6578 14L27.5178 17.8C27.0378 18.66 26.3178 19.22 25.2378 19.22C24.1978 19.22 23.2778 18.62 22.9178 17.38L19.5178 5.62H23.6578L24.9178 10.28C25.3378 11.78 25.6178 12.88 25.8178 13.96C26.2578 13.02 26.7778 12 27.6978 10.26L29.4978 6.9C30.1978 5.58 30.8778 5.4 31.8578 5.4C32.8578 5.4 33.5578 5.58 34.2578 6.9L36.0378 10.28C37.0378 12.12 37.4978 13.06 37.9178 13.96C38.1378 12.9 38.4378 11.76 38.8378 10.28L40.0978 5.62H44.1378L40.6778 17.38C40.3178 18.62 39.3978 19.22 38.3578 19.22C37.2978 19.22 36.5778 18.68 36.0778 17.8ZM59.6731 5.62H64.8731L56.9331 14.58V19H52.7731V14.56L44.6131 5.62H49.9331L53.1331 9.34C53.5531 9.82 54.6731 11.04 54.9531 11.44C55.2131 11.06 55.6731 10.48 56.6331 9.32L59.6731 5.62ZM65.2395 5.62H70.3195L76.3395 14.5L82.6195 5.62H87.4995L78.9395 17.72C78.3595 18.5 77.5395 19.22 76.2595 19.22C75.0195 19.22 74.1995 18.56 73.6195 17.72L65.2395 5.62ZM93.1348 15.56H104.515L101.855 19H88.9748V5.62H104.475L101.795 9.1H93.1348V10.7H103.735L101.355 13.74H93.1348V15.56ZM110.068 15.56H120.428L117.748 19H105.928V5.62H110.068V15.56Z" fill="#1C1C1C"/>
</svg>
